<?xml version="1.0" standalone="no"?>
<!DOCTYPE svg PUBLIC "-//W3C//DTD SVG 20010904//EN"
 "http://www.w3.org/TR/2001/REC-SVG-20010904/DTD/svg10.dtd">
<svg version="1.0" xmlns="http://www.w3.org/2000/svg"
 width="512.000000pt" height="512.000000pt" viewBox="0 0 512.000000 512.000000"
 preserveAspectRatio="xMidYMid meet">
<metadata>
Created by potrace 1.14, written by Peter Selinger 2001-2017
</metadata>
<g transform="translate(0.000000,512.000000) scale(0.100000,-0.100000)"
fill="#000000" stroke="none">
<path d="M1 3628 c0 -821 3 -1487 6 -1480 11 28 31 10 38 -34 7 -51 6 -54 -24
-57 l-21 -1 0 -1028 0 -1028 2360 0 2360 0 0 40 0 40 160 0 160 0 0 -40 0 -40
40 0 40 0 0 976 0 975 -232 -3 c-178 -2 -232 0 -235 10 -5 14 -79 17 -88 2 -8
-14 -382 -13 -390 0 -14 22 6 50 35 50 16 0 30 5 32 12 3 9 18 7 54 -7 41 -17
83 -20 269 -25 121 -3 295 -4 388 -2 l167 2 0 25 c0 13 -3 26 -7 28 -5 3 -82
8 -173 11 -212 9 -269 18 -319 52 -47 31 -52 38 -17 24 20 -7 25 -6 28 8 4 23
68 23 88 0 19 -21 147 -55 236 -63 38 -3 90 -8 117 -11 l47 -5 0 341 c0 265
-3 340 -12 340 -10 0 -9 3 1 9 26 16 0 31 -54 31 -30 0 -57 5 -60 10 -3 6 -14
10 -23 10 -13 0 -14 -2 -4 -9 11 -7 10 -10 -3 -15 -27 -10 -50 -7 -71 10 -17
14 -17 15 -1 10 10 -3 16 -2 13 3 -5 7 -59 8 -156 2 -24 -2 -484 -5 -607 -5
-62 0 -114 2 -116 5 -8 9 6 88 14 83 5 -3 9 0 9 5 0 6 -4 11 -9 11 -4 0 -15
24 -24 53 -8 28 -20 66 -26 82 -5 17 -20 88 -32 158 -21 125 -21 128 -3 143
18 15 18 15 -1 10 -30 -7 -148 17 -153 32 -2 8 11 12 46 12 89 0 109 8 126 51
17 42 30 52 21 17 -5 -21 0 -25 52 -40 60 -18 93 -20 93 -7 0 4 -7 10 -16 13
-12 4 -14 15 -9 48 4 23 9 46 11 50 2 4 -1 12 -8 17 -58 48 -76 60 -82 54 -3
-4 -3 8 0 25 4 22 3 32 -5 32 -17 0 -41 25 -41 42 0 8 -16 33 -35 55 -19 23
-35 50 -35 60 0 11 -7 28 -15 39 -18 24 -20 90 -2 91 139 6 1121 10 1094 5
l-39 -7 24 -22 c20 -19 61 -25 88 -13 3 1 15 1 28 0 21 -1 22 2 22 64 l0 66
-187 0 c-104 1 -390 3 -637 6 -310 4 -451 3 -455 -5 -11 -17 -120 4 -197 37
-38 16 -87 35 -108 42 -96 31 60 50 408 50 349 1 1032 -9 1114 -15 l62 -6 0
491 0 490 -2560 0 -2560 0 1 -1492z m3076 146 c-3 -3 -12 -4 -19 -1 -8 3 -5 6
6 6 11 1 17 -2 13 -5z m-2820 -141 c-3 -10 -5 -2 -5 17 0 19 2 27 5 18 2 -10
2 -26 0 -35z m2803 -4 c0 -5 -7 -9 -15 -9 -8 0 -15 7 -15 15 0 9 6 12 15 9 8
-4 15 -10 15 -15z m943 -22 c-3 -5 -10 -4 -15 1 -6 6 -7 16 -3 22 6 9 9 9 16
-1 4 -7 5 -17 2 -22z m-3732 -42 c5 4 10 -2 10 -12 3 -41 5 -46 18 -51 8 -2
11 -1 8 4 -3 5 -2 25 3 44 6 27 8 12 10 -65 1 -55 4 -92 7 -82 9 33 26 18 20
-18 -3 -19 -1 -37 4 -40 5 -4 10 16 10 44 1 28 3 56 4 61 1 6 3 22 4 37 3 59
13 8 20 -99 8 -106 8 -108 10 -35 0 44 5 77 11 77 6 0 10 -14 10 -31 0 -24 4
-30 16 -25 8 3 12 2 9 -4 -3 -6 -2 -10 2 -10 5 0 8 -12 7 -27 -6 -79 -6 -80
-14 -43 -5 24 -8 -2 -9 -78 0 -62 3 -111 7 -108 5 3 8 30 7 60 -1 37 2 53 9
49 6 -3 5 0 -1 8 -15 16 -17 33 -3 24 6 -3 10 4 11 17 1 32 6 59 13 66 3 3 6
-1 6 -9 0 -11 2 -11 10 1 7 11 10 1 10 -35 1 -93 12 -260 16 -265 3 -2 3 46 1
108 -2 61 0 112 4 112 4 0 7 9 6 19 0 11 -5 17 -9 15 -4 -3 -8 -1 -8 5 0 5 5
11 10 13 8 2 16 61 19 141 1 27 31 20 32 -8 2 -37 3 -43 12 -51 4 -4 7 5 7 20
0 16 4 25 10 21 14 -8 13 18 -1 32 -8 8 -6 11 7 10 14 -2 20 6 22 31 5 47 22
39 22 -10 0 -24 3 -60 6 -81 5 -29 10 -36 24 -32 14 4 17 -2 19 -42 1 -28 8
-54 18 -65 15 -17 15 -18 1 -13 -13 5 -15 2 -11 -14 3 -11 9 -18 14 -15 5 3 9
-35 9 -84 0 -88 0 -88 -32 -112 -86 -63 -167 -168 -209 -267 -20 -50 -22 -52
-70 -58 -26 -4 -53 -4 -59 0 -5 3 -10 24 -10 45 0 46 -9 72 -21 64 -13 -7 -40
16 -33 27 3 5 13 5 24 -1 10 -5 26 -7 36 -3 10 4 20 0 26 -10 6 -11 21 -17 41
-16 l32 1 -30 7 c-25 5 -29 11 -26 31 1 14 8 29 15 33 8 6 8 10 -1 14 -7 2
-13 18 -13 34 0 24 -4 29 -24 29 -18 0 -26 -6 -28 -22 -2 -13 -3 47 -2 132 l2
155 -8 -135 c-4 -74 -8 -143 -9 -153 -1 -14 -7 -16 -33 -12 -18 4 -36 11 -40
18 -4 7 -7 161 -6 342 0 182 3 320 5 307 2 -12 9 -20 14 -17z m2769 -91 c-15
-67 -18 -114 -7 -107 5 3 8 2 5 -3 -2 -5 -10 -22 -17 -39 -55 -125 -71 -149
-44 -67 8 26 18 70 23 97 8 56 41 177 47 171 2 -2 -1 -25 -7 -52z m1050 36
c13 -8 13 -10 -2 -10 -9 0 -20 5 -23 10 -8 13 5 13 25 0z m-3740 -70 c0 -5 -4
-10 -10 -10 -5 0 -10 5 -10 10 0 6 5 10 10 10 6 0 10 -4 10 -10z m110 -24 c0
-3 -4 -8 -10 -11 -5 -3 -10 -1 -10 4 0 6 5 11 10 11 6 0 10 -2 10 -4z m1100
-16 c6 -11 9 -20 7 -20 -2 0 -12 9 -22 20 -10 11 -13 20 -7 20 6 0 16 -9 22
-20z m-743 -36 c-3 -3 -12 -4 -19 -1 -8 3 -5 6 6 6 11 1 17 -2 13 -5z m-320
-20 c-3 -3 -12 -4 -19 -1 -8 3 -5 6 6 6 11 1 17 -2 13 -5z m257 -19 c3 -8 1
-15 -4 -15 -6 0 -10 7 -10 15 0 8 2 15 4 15 2 0 6 -7 10 -15z m396 -80 c-6 -7
-28 -15 -50 -19 -22 -3 -40 -11 -40 -16 0 -6 -7 -10 -15 -10 -11 0 -12 6 -6
22 9 25 38 36 88 35 25 0 30 -3 23 -12z m-190 -75 c9 -6 17 -5 21 2 6 9 12 8
23 -1 16 -14 22 -50 9 -52 -5 -1 -17 -3 -28 -4 -11 -2 -39 -6 -62 -10 -42 -7
-43 -7 -43 19 0 14 5 26 11 26 8 0 8 5 -1 15 -11 13 -8 15 21 15 19 0 41 -4
49 -10z m-685 -320 c3 -5 -1 -10 -9 -10 -9 0 -16 5 -16 10 0 6 4 10 9 10 6 0
13 -4 16 -10z m1475 -75 c0 -51 -2 -55 -24 -55 -26 0 -42 36 -31 71 10 31 25
22 25 -16 0 -19 5 -35 10 -35 6 0 10 20 10 45 0 25 2 45 5 45 3 0 5 -25 5 -55z
m3123 5 c14 -11 30 -20 36 -20 27 0 7 -20 -35 -34 -43 -14 -48 -14 -78 2 -27
15 -76 18 -406 22 l-375 6 367 2 c348 2 369 3 400 22 41 25 59 25 91 0z
m-2266 -322 c-3 -8 -6 -5 -6 6 -1 11 2 17 5 13 3 -3 4 -12 1 -19z m1833 -19
c0 -5 -4 -9 -10 -9 -5 0 -10 7 -10 16 0 8 5 12 10 9 6 -3 10 -10 10 -16z
m-406 -36 c10 -24 -10 -13 -34 19 l-23 31 26 -19 c14 -10 28 -25 31 -31z
m-1437 -5 c-3 -8 -6 -5 -6 6 -1 11 2 17 5 13 3 -3 4 -12 1 -19z m1847 13 c4
-5 -3 -7 -14 -4 -23 6 -26 13 -6 13 8 0 17 -4 20 -9z m-74 -21 c0 -5 -4 -10
-10 -10 -5 0 -10 5 -10 10 0 6 5 10 10 10 6 0 10 -4 10 -10z m55 -10 c-3 -5
-12 -10 -18 -10 -7 0 -6 4 3 10 19 12 23 12 15 0z m-390 -40 c3 -5 1 -10 -4
-10 -6 0 -11 5 -11 10 0 6 2 10 4 10 3 0 8 -4 11 -10z m-138 -62 c-2 -13 -4
-5 -4 17 -1 22 1 32 4 23 2 -10 2 -28 0 -40z m-1316 -63 c-6 -35 -9 -41 -10
-20 -1 30 9 78 15 73 2 -2 -1 -26 -5 -53z m-1358 28 c-13 -2 -35 -2 -50 0 -16
2 -5 4 22 4 28 0 40 -2 28 -4z m2674 -25 c-3 -7 -5 -2 -5 12 0 14 2 19 5 13 2
-7 2 -19 0 -25z m-2940 8 c-10 -8 -52 -26 -95 -40 -129 -45 -214 -78 -277
-107 -33 -15 -87 -33 -120 -39 -44 -9 -55 -15 -40 -20 14 -5 8 -8 -26 -13 -25
-3 -53 -9 -62 -13 -11 -4 -17 -1 -17 8 0 9 27 23 73 37 39 12 101 34 137 48
129 51 415 152 430 152 12 0 11 -2 -3 -13z m336 7 c-7 -2 -21 -2 -30 0 -10 3
-4 5 12 5 17 0 24 -2 18 -5z m186 -39 c124 -32 160 -44 135 -44 -29 1 -182 32
-199 40 -11 6 -40 16 -65 24 -92 29 -3 15 129 -20z m-2 20 c-3 -3 -12 -4 -19
-1 -8 3 -5 6 6 6 11 1 17 -2 13 -5z m-327 -28 c0 -2 -7 -6 -15 -10 -8 -3 -15
-1 -15 4 0 6 7 10 15 10 8 0 15 -2 15 -4z m1401 -208 c-12 -84 -23 -180 -25
-213 -2 -33 -2 -6 -1 60 2 105 32 322 43 311 2 -2 -6 -73 -17 -158z m1356 70
c-2 -18 -4 -4 -4 32 0 36 2 50 4 33 2 -18 2 -48 0 -65z m-2467 5 c21 -5 18 -7
-19 -13 -41 -6 -110 6 -126 22 -7 7 107 0 145 -9z m615 -48 c6 -30 9 -57 7
-60 -3 -3 -54 -5 -114 -5 -96 0 -108 2 -109 18 -2 30 3 57 12 68 5 6 7 18 4
25 -4 11 13 14 92 12 l97 -2 11 -56z m-1725 51 c0 -3 -4 -8 -10 -11 -5 -3 -10
-1 -10 4 0 6 5 11 10 11 6 0 10 -2 10 -4z m-285 -46 c-3 -5 -10 -10 -16 -10
-5 0 -9 5 -9 10 0 6 7 10 16 10 8 0 12 -4 9 -10z m636 -40 c20 -16 21 -21 10
-29 -23 -15 -122 0 -171 25 l-45 24 91 0 c77 0 96 -3 115 -20z m524 10 c3 -6
-4 -10 -17 -10 -18 0 -20 2 -8 10 19 12 18 12 25 0z m75 -10 c0 -5 -4 -10 -10
-10 -5 0 -10 5 -10 10 0 6 5 10 10 10 6 0 10 -4 10 -10z m-490 -50 c0 -13 -11
-13 -30 0 -12 8 -11 10 8 10 12 0 22 -4 22 -10z m-382 -76 c4 -4 -4 -4 -18 -1
-14 4 -35 7 -48 7 -13 0 -21 4 -18 9 6 9 73 -2 84 -15z m735 -1 c-7 -2 -21 -2
-30 0 -10 3 -4 5 12 5 17 0 24 -2 18 -5z m-450 -19 c9 -3 17 -12 17 -19 0 -9
-11 -9 -52 2 -29 7 -82 18 -118 23 -61 9 -58 9 35 5 55 -2 108 -7 118 -11z
m114 -126 c-2 -13 -4 -5 -4 17 -1 22 1 32 4 23 2 -10 2 -28 0 -40z m1730 -40
c-3 -7 -5 -2 -5 12 0 14 2 19 5 13 2 -7 2 -19 0 -25z m-1727 -115 c-4 -56 -5
-57 -8 -14 -3 38 2 71 10 71 2 0 1 -26 -2 -57z m1774 -137 c6 -67 35 -166 58
-193 6 -7 7 -13 4 -13 -4 0 24 -31 62 -68 38 -37 96 -109 130 -159 88 -131
135 -172 219 -192 l38 -9 -35 -1 c-43 -1 -107 28 -136 60 -12 13 -49 65 -82
114 -33 50 -99 130 -147 178 -47 48 -83 92 -80 96 2 5 -2 14 -9 20 -8 7 -13
23 -10 37 3 16 1 23 -6 19 -10 -6 -15 19 -12 58 1 9 -2 17 -7 17 -5 0 -11 11
-13 25 -3 14 -1 25 3 25 12 0 12 47 0 54 -7 5 -8 32 -1 61 4 18 18 -56 24
-129z m-1777 12 c-2 -13 -4 -3 -4 22 0 25 2 35 4 23 2 -13 2 -33 0 -45z m993
52 c0 -5 -4 -10 -10 -10 -5 0 -10 5 -10 10 0 6 5 10 10 10 6 0 10 -4 10 -10z
m688 -7 c-10 -2 -26 -2 -35 0 -10 3 -2 5 17 5 19 0 27 -2 18 -5z m-1779 -110
c0 -5 -4 -17 -9 -28 -8 -18 -9 -17 -9 8 -1 15 4 27 9 27 6 0 10 -3 9 -7z
m3307 -380 c-10 -10 -19 5 -10 18 6 11 8 11 12 0 2 -7 1 -15 -2 -18z m-181
-143 c-11 -5 -29 -8 -40 -8 -16 0 -15 2 5 8 34 11 60 11 35 0z m-132 -27 c-7
-2 -21 -2 -30 0 -10 3 -4 5 12 5 17 0 24 -2 18 -5z"/>
<path d="M292 3450 c0 -14 2 -19 5 -12 2 6 2 18 0 25 -3 6 -5 1 -5 -13z"/>
<path d="M432 3056 c1 -19 6 -32 10 -30 12 7 10 52 -2 59 -7 4 -10 -6 -8 -29z"/>
<path d="M437 3003 c-4 -3 -7 -13 -7 -22 1 -13 3 -13 11 2 11 19 8 33 -4 20z"/>
<path d="M516 2963 c-6 -14 -5 -15 5 -6 7 7 10 15 7 18 -3 3 -9 -2 -12 -12z"/>
<path d="M522 2910 c0 -19 2 -27 5 -17 2 9 2 25 0 35 -3 9 -5 1 -5 -18z"/>
<path d="M2680 1146 c0 -2 8 -10 18 -17 15 -13 16 -12 3 4 -13 16 -21 21 -21
13z"/>
<path d="M4461 4124 c0 -11 3 -14 6 -6 3 7 2 16 -1 19 -3 4 -6 -2 -5 -13z"/>
<path d="M4318 4113 c7 -3 16 -2 19 1 4 3 -2 6 -13 5 -11 0 -14 -3 -6 -6z"/>
<path d="M4868 4093 c7 -3 16 -2 19 1 4 3 -2 6 -13 5 -11 0 -14 -3 -6 -6z"/>
<path d="M4955 4060 c-3 -5 1 -10 9 -10 9 0 16 5 16 10 0 6 -4 10 -9 10 -6 0
-13 -4 -16 -10z"/>
<path d="M4162 3898 c-7 -7 -12 -16 -12 -22 0 -5 7 -1 15 10 9 10 14 13 13 5
-2 -7 5 -15 15 -16 21 -4 22 2 3 21 -18 17 -19 17 -34 2z"/>
<path d="M5111 3866 c-1 -11 -6 -16 -15 -13 -8 3 -25 -2 -38 -12 -13 -10 -29
-16 -35 -14 -7 3 -13 -2 -13 -11 0 -9 -3 -16 -7 -16 -5 0 -8 -30 -8 -68 0 -37
-3 -87 -6 -112 -8 -58 -3 -73 21 -60 27 15 30 13 31 -17 1 -50 16 3 31 107 7
52 14 83 16 68 2 -16 9 -28 18 -28 11 0 14 15 14 66 0 41 -4 63 -10 59 -13 -8
-13 8 1 22 6 6 9 19 6 29 -5 19 -5 19 -6 0z"/>
<path d="M4183 3825 c0 -8 7 -15 15 -15 12 0 12 3 2 15 -7 8 -13 15 -15 15 -1
0 -2 -7 -2 -15z"/>
<path d="M4155 3819 c-4 -6 -5 -12 -2 -15 2 -3 7 2 10 11 7 17 1 20 -8 4z"/>
<path d="M4344 3619 c-3 -6 -1 -16 5 -22 8 -8 11 -6 11 7 0 12 5 16 15 12 8
-3 15 -1 15 4 0 14 -37 13 -46 -1z"/>
<path d="M5015 3550 c-3 -5 -1 -10 4 -10 6 0 11 5 11 10 0 6 -2 10 -4 10 -3 0
-8 -4 -11 -10z"/>
<path d="M4150 3409 c0 -9 144 -23 162 -16 7 3 0 6 -17 7 -16 1 -56 5 -87 9
-32 4 -58 4 -58 0z"/>
<path d="M4540 3396 c0 -14 40 -30 50 -20 5 6 -29 34 -42 34 -4 0 -8 -6 -8
-14z"/>
<path d="M4079 3378 c0 -7 -2 -26 -4 -41 -3 -22 -1 -26 9 -18 7 6 16 8 19 4 4
-3 7 1 7 11 0 9 -4 15 -9 12 -4 -3 -7 6 -5 19 1 14 -2 25 -7 25 -5 0 -9 -6
-10 -12z"/>
<path d="M4795 3340 l-50 -6 50 -9 c58 -11 64 -12 68 -15 1 -1 12 -3 24 -4 38
-4 39 -16 2 -17 -190 -7 -199 -8 -199 -20 0 -7 -8 -18 -17 -25 -10 -7 -13 -14
-6 -14 6 0 15 5 18 10 4 6 10 8 15 5 5 -3 11 -1 15 5 14 22 27 8 23 -25 -3
-29 -1 -35 15 -35 14 0 18 -6 15 -27 -3 -29 -6 -30 -78 -35 -23 -2 -40 -11
-51 -26 -9 -13 -19 -22 -22 -20 -3 2 -9 0 -13 -4 -4 -5 -2 -8 6 -8 10 0 10 -3
-1 -17 -7 -10 -9 -15 -5 -11 5 4 14 1 20 -7 9 -12 16 -11 49 5 31 15 37 16 37
4 0 -8 6 -14 13 -13 6 1 19 1 27 0 13 -1 13 -2 0 -11 -10 -6 -11 -10 -3 -10 7
0 12 -6 10 -12 -1 -7 5 -12 14 -12 9 1 16 -5 16 -13 0 -8 -6 -12 -13 -9 -23 9
-31 -50 -10 -66 6 -4 4 -13 -3 -22 -11 -13 -11 -16 3 -16 9 0 16 -4 16 -10 0
-14 33 -12 49 3 11 9 12 9 7 0 -5 -9 -2 -11 9 -7 8 4 22 1 30 -6 12 -10 18
-10 30 0 8 6 19 9 24 6 5 -4 12 -2 16 4 3 6 -4 11 -17 11 -20 1 -21 2 -3 6 11
3 25 10 30 15 7 7 7 9 0 5 -6 -3 -18 1 -28 8 -18 13 -18 14 2 25 12 6 21 16
21 23 0 7 -3 8 -8 2 -9 -12 -44 -16 -36 -4 3 5 0 9 -5 9 -6 0 -11 5 -11 11 0
5 5 7 12 3 7 -4 8 -3 4 4 -4 7 -18 12 -32 12 -33 0 -30 20 4 21 50 1 85 8 96
19 8 8 7 9 -5 5 -10 -4 -20 -2 -24 4 -5 10 15 16 38 12 5 -1 6 3 2 9 -3 6 -12
8 -18 5 -7 -3 -5 0 4 6 13 9 14 17 5 35 -6 13 -14 24 -18 24 -5 0 -8 5 -8 11
0 7 -8 18 -17 26 -17 14 -17 14 1 9 13 -5 17 -2 12 9 -4 12 2 14 32 10 20 -2
44 0 52 5 12 8 9 10 -11 10 -15 0 -32 7 -39 15 -11 13 -9 15 13 15 13 0 38 7
53 15 17 9 30 11 32 5 4 -11 42 6 42 18 0 4 -14 15 -31 24 -17 10 -27 22 -24
28 3 5 2 10 -4 10 -5 0 -12 -6 -14 -12 -4 -10 -6 -10 -6 0 -1 6 -6 12 -12 12
-5 0 -7 -5 -3 -12 4 -7 3 -8 -4 -4 -20 12 -13 24 16 29 42 6 -186 4 -243 -3z
m270 -40 c4 -6 -6 -10 -22 -9 -25 0 -26 1 -8 9 11 5 21 9 22 9 1 1 5 -3 8 -9z
m-164 -253 c-8 -8 -11 -6 -11 7 0 11 -5 16 -13 13 -7 -3 -22 2 -32 10 -17 13
-17 15 -2 10 9 -4 17 -3 17 2 0 4 10 13 23 18 20 9 22 7 25 -20 2 -16 -1 -34
-7 -40z m49 43 c0 -5 -4 -10 -10 -10 -5 0 -10 5 -10 10 0 6 5 10 10 10 6 0 10
-4 10 -10z m-200 -6 c0 -8 -19 -13 -24 -6 -3 5 1 9 9 9 8 0 15 -2 15 -3z m140
-68 c-7 -7 -13 -7 -20 0 -6 6 -3 10 10 10 13 0 16 -4 10 -10z m-86 -78 c-3 -4
-15 -8 -27 -8 -15 0 -18 3 -9 8 17 11 43 11 36 0z m71 -49 c-5 -15 -4 -19 4
-15 6 4 11 2 11 -3 0 -15 -13 -14 -36 5 -10 8 -14 13 -8 10 7 -3 14 1 18 9 9
23 18 18 11 -6z"/>
<path d="M4880 3089 c0 -5 5 -7 10 -4 6 3 10 8 10 11 0 2 -4 4 -10 4 -5 0 -10
-5 -10 -11z"/>
<path d="M4080 3300 c-8 -5 -19 -6 -25 -2 -5 3 -4 -2 4 -11 11 -14 11 -20 1
-32 -7 -9 -10 -18 -7 -21 9 -9 27 6 27 22 0 10 5 12 13 8 8 -5 7 -2 -2 9 -12
15 -12 17 3 11 9 -3 16 -1 16 4 0 16 -14 22 -30 12z"/>
<path d="M4195 3150 c-17 -18 -35 -28 -44 -25 -11 4 -10 1 3 -14 11 -12 14
-21 7 -26 -14 -8 -14 -75 -1 -75 6 0 10 6 10 14 0 14 32 95 51 129 17 31 5 29
-26 -3z"/>
<path d="M4551 3159 c-13 -11 -20 -19 -17 -19 4 0 -1 -11 -9 -24 -14 -21 -14
-24 0 -30 9 -3 13 -2 10 4 -3 6 0 10 7 10 10 0 9 3 -1 9 -12 8 -7 14 22 31 41
25 42 26 24 33 -7 2 -23 -4 -36 -14z"/>
<path d="M4500 3070 c8 -5 20 -10 25 -10 6 0 3 5 -5 10 -8 5 -19 10 -25 10 -5
0 -3 -5 5 -10z"/>
<path d="M4080 3030 c0 -11 4 -20 9 -20 11 0 22 26 14 34 -12 12 -23 5 -23
-14z"/>
<path d="M4716 3004 c-8 -20 -8 -24 2 -24 4 0 8 9 9 20 2 24 -3 26 -11 4z"/>
<path d="M4590 2987 c0 -8 9 -17 20 -20 11 -3 20 -1 20 4 0 4 -9 13 -20 19
-16 8 -20 8 -20 -3z"/>
<path d="M4720 2960 c-8 -5 -12 -12 -9 -15 8 -8 39 5 39 16 0 11 -11 11 -30
-1z"/>
<path d="M4540 2939 c0 -5 5 -7 10 -4 6 3 10 8 10 11 0 2 -4 4 -10 4 -5 0 -10
-5 -10 -11z"/>
<path d="M4612 2917 c1 -22 6 -34 15 -34 10 0 13 7 9 21 -3 12 -6 27 -6 34 0
6 -4 12 -10 12 -5 0 -9 -15 -8 -33z"/>
<path d="M4480 2903 c-30 -11 -42 -26 -29 -34 8 -4 19 -1 27 9 13 16 13 16 8
-1 -4 -11 -2 -16 5 -12 6 4 8 13 5 20 -3 8 0 16 7 19 17 6 -5 6 -23 -1z"/>
<path d="M4580 2890 c0 -11 4 -20 9 -20 5 0 7 9 4 20 -3 11 -7 20 -9 20 -2 0
-4 -9 -4 -20z"/>
<path d="M4592 2840 c0 -14 2 -19 5 -12 2 6 2 18 0 25 -3 6 -5 1 -5 -13z"/>
<path d="M4653 2136 c0 -7 6 -13 14 -13 7 0 13 4 13 8 0 4 -6 9 -13 12 -8 3
-14 0 -14 -7z"/>
</g>
</svg>
